<svg xmlns="http://www.w3.org/2000/svg" xmlns:xlink="http://www.w3.org/1999/xlink" width="500" zoomAndPan="magnify" viewBox="0 0 375 374.999991" height="500" preserveAspectRatio="xMidYMid meet" version="1.0"><defs><g/><clipPath id="53be302f2e"><path d="M 194 216 L 265 216 L 265 263 L 194 263 Z M 194 216 " clip-rule="nonzero"/></clipPath><clipPath id="392733434c"><path d="M 187.992188 248.894531 L 218.285156 191.949219 L 271.917969 220.484375 L 241.625 277.425781 Z M 187.992188 248.894531 " clip-rule="nonzero"/></clipPath><clipPath id="bc7b90cf7f"><path d="M 241.695312 277.464844 L 271.988281 220.519531 L 218.355469 191.988281 L 188.0625 248.933594 Z M 241.695312 277.464844 " clip-rule="nonzero"/></clipPath></defs><g clip-path="url(#53be302f2e)"><g clip-path="url(#392733434c)"><g clip-path="url(#bc7b90cf7f)"><path fill="#20b073" d="M 255.546875 228.347656 C 241.449219 255.132812 221.339844 262.84375 194.855469 250.332031 C 194.523438 250.171875 194.253906 250.636719 194.550781 250.855469 C 202.355469 256.535156 210.167969 260.398438 217.996094 261.8125 C 243.820312 266.480469 261.0625 241.054688 264.257812 218.207031 C 264.414062 217.070312 263.289062 216.222656 262.234375 216.675781 C 242.359375 225.253906 210.871094 205.894531 205.660156 249.730469 C 226.308594 253.4375 243.421875 247.617188 255.546875 228.347656 " fill-opacity="1" fill-rule="evenodd"/></g></g></g><g fill="#17542a" fill-opacity="1"><g transform="translate(41.514595, 254.558858)"><g><path d="M 86.15625 -32.0625 C 83.625 -27.507812 80.925781 -24.679688 78.0625 -23.578125 C 75.195312 -22.472656 72.273438 -22.628906 69.296875 -24.046875 C 66.316406 -25.460938 63.429688 -27.644531 60.640625 -30.59375 C 57.847656 -33.539062 55.226562 -36.804688 52.78125 -40.390625 C 50.34375 -43.984375 48.207031 -47.429688 46.375 -50.734375 C 44.550781 -54.035156 43.128906 -56.597656 42.109375 -58.421875 C 41.304688 -57.941406 39.890625 -57.21875 37.859375 -56.25 C 35.835938 -55.289062 33.914062 -54.296875 32.09375 -53.265625 C 30.269531 -52.242188 29.132812 -51.304688 28.6875 -50.453125 C 28.15625 -49.460938 28.171875 -47.835938 28.734375 -45.578125 C 29.296875 -43.316406 29.628906 -41.613281 29.734375 -40.46875 C 29.929688 -37.082031 30.0625 -33.617188 30.125 -30.078125 C 30.1875 -26.546875 29.523438 -23.144531 28.140625 -19.875 C 26.335938 -15.664062 23.707031 -12.710938 20.25 -11.015625 C 16.789062 -9.316406 13.1875 -8.96875 9.4375 -9.96875 C 5.695312 -10.96875 2.457031 -13.25 -0.28125 -16.8125 C -3.257812 -20.78125 -5.40625 -25.523438 -6.71875 -31.046875 C -8.03125 -36.578125 -9.050781 -42.222656 -9.78125 -47.984375 C -10.519531 -53.753906 -11.414062 -58.972656 -12.46875 -63.640625 C -14.195312 -71.285156 -16.410156 -79 -19.109375 -86.78125 C -21.816406 -94.570312 -23.671875 -102.285156 -24.671875 -109.921875 C -25.296875 -114.703125 -24.539062 -118.867188 -22.40625 -122.421875 C -20.269531 -125.972656 -17.164062 -128.957031 -13.09375 -131.375 C -9.019531 -133.789062 -4.425781 -135.738281 0.6875 -137.21875 C 5.8125 -138.707031 11.046875 -139.726562 16.390625 -140.28125 C 21.734375 -140.832031 26.757812 -140.957031 31.46875 -140.65625 C 36.1875 -140.363281 40.164062 -139.765625 43.40625 -138.859375 C 50.289062 -136.890625 55.734375 -133.78125 59.734375 -129.53125 C 63.734375 -125.289062 66.421875 -120.414062 67.796875 -114.90625 C 69.179688 -109.394531 69.304688 -103.59375 68.171875 -97.5 C 67.046875 -91.414062 64.84375 -85.566406 61.5625 -79.953125 C 64.4375 -77.503906 67.75 -74.472656 71.5 -70.859375 C 75.257812 -67.253906 78.6875 -63.28125 81.78125 -58.9375 C 84.875 -54.59375 86.988281 -50.132812 88.125 -45.5625 C 89.269531 -40.988281 88.613281 -36.488281 86.15625 -32.0625 Z M 18.828125 -73.625 C 21.628906 -75.769531 24.335938 -78.007812 26.953125 -80.34375 C 29.566406 -82.675781 31.929688 -85.226562 34.046875 -88 C 36.890625 -91.582031 38.15625 -94.660156 37.84375 -97.234375 C 37.539062 -99.816406 36.269531 -101.863281 34.03125 -103.375 C 31.789062 -104.894531 29.085938 -105.796875 25.921875 -106.078125 C 22.753906 -106.367188 19.675781 -105.945312 16.6875 -104.8125 C 14.351562 -103.976562 12.441406 -103.160156 10.953125 -102.359375 C 9.472656 -101.554688 8.734375 -99.96875 8.734375 -97.59375 C 8.679688 -95.457031 9.3125 -92.894531 10.625 -89.90625 C 11.9375 -86.914062 13.410156 -83.984375 15.046875 -81.109375 C 16.691406 -78.234375 17.953125 -75.738281 18.828125 -73.625 Z M 18.828125 -73.625 "/></g></g></g><g fill="#17542a" fill-opacity="1"><g transform="translate(121.34413, 204.93693)"><g><path d="M 14.0625 -0.359375 C 12.925781 -0.347656 11.707031 -0.289062 10.40625 -0.1875 C 9.113281 -0.0820312 7.859375 -0.144531 6.640625 -0.375 C 5.421875 -0.613281 4.328125 -1.179688 3.359375 -2.078125 C 2.328125 -3.085938 1.6875 -4.296875 1.4375 -5.703125 C 1.195312 -7.109375 1.125 -8.585938 1.21875 -10.140625 C 1.3125 -11.691406 1.378906 -13.085938 1.421875 -14.328125 C 1.503906 -16.765625 1.582031 -19.179688 1.65625 -21.578125 C 1.738281 -23.984375 1.816406 -26.398438 1.890625 -28.828125 C 1.972656 -31.648438 2.0625 -34.488281 2.15625 -37.34375 C 2.257812 -40.195312 2.328125 -43.039062 2.359375 -45.875 C 2.453125 -47.457031 2.425781 -49.203125 2.28125 -51.109375 C 2.144531 -53.023438 2.347656 -54.753906 2.890625 -56.296875 C 3.378906 -57.710938 4.3125 -58.78125 5.6875 -59.5 C 7.0625 -60.226562 8.675781 -60.703125 10.53125 -60.921875 C 12.394531 -61.148438 14.328125 -61.203125 16.328125 -61.078125 C 18.335938 -60.960938 20.234375 -60.789062 22.015625 -60.5625 C 23.804688 -60.34375 25.265625 -60.148438 26.390625 -59.984375 C 27.691406 -59.835938 28.9375 -59.601562 30.125 -59.28125 C 31.320312 -58.957031 32.332031 -58.421875 33.15625 -57.671875 C 33.988281 -56.921875 34.5 -55.78125 34.6875 -54.25 C 34.9375 -52.6875 34.703125 -51.25 33.984375 -49.9375 C 33.265625 -48.625 32.175781 -47.648438 30.71875 -47.015625 C 29.59375 -46.535156 28.460938 -46.375 27.328125 -46.53125 C 26.203125 -46.6875 25.070312 -46.867188 23.9375 -47.078125 C 22.8125 -47.296875 21.710938 -47.253906 20.640625 -46.953125 C 19.960938 -46.828125 19.289062 -46.363281 18.625 -45.5625 C 17.957031 -44.769531 17.585938 -43.890625 17.515625 -42.921875 C 17.441406 -41.960938 17.890625 -41.128906 18.859375 -40.421875 C 19.597656 -39.921875 20.644531 -39.707031 22 -39.78125 C 23.351562 -39.851562 24.75 -39.953125 26.1875 -40.078125 C 27.632812 -40.210938 28.804688 -40.117188 29.703125 -39.796875 C 31.179688 -39.253906 32.222656 -38.53125 32.828125 -37.625 C 33.429688 -36.726562 33.800781 -35.546875 33.9375 -34.078125 C 34.1875 -32.335938 34.039062 -30.570312 33.5 -28.78125 C 32.957031 -27 31.757812 -25.8125 29.90625 -25.21875 C 28.78125 -24.914062 27.566406 -24.910156 26.265625 -25.203125 C 24.960938 -25.503906 23.6875 -25.71875 22.4375 -25.84375 C 21.195312 -25.96875 20.101562 -25.570312 19.15625 -24.65625 C 17.988281 -23.507812 17.507812 -22.5 17.71875 -21.625 C 17.925781 -20.757812 18.539062 -20.019531 19.5625 -19.40625 C 20.582031 -18.800781 21.703125 -18.332031 22.921875 -18 C 24.140625 -17.675781 25.144531 -17.492188 25.9375 -17.453125 C 27.125 -17.421875 28.421875 -17.457031 29.828125 -17.5625 C 31.242188 -17.664062 32.628906 -17.65625 33.984375 -17.53125 C 35.347656 -17.40625 36.546875 -16.953125 37.578125 -16.171875 C 38.535156 -15.515625 39.148438 -14.5625 39.421875 -13.3125 C 39.703125 -12.070312 39.765625 -10.816406 39.609375 -9.546875 C 39.453125 -8.273438 39.210938 -7.15625 38.890625 -6.1875 C 38.066406 -4.09375 36.867188 -2.738281 35.296875 -2.125 C 33.722656 -1.507812 31.863281 -1.128906 29.71875 -0.984375 C 27.125 -0.835938 24.53125 -0.734375 21.9375 -0.671875 C 19.34375 -0.609375 16.71875 -0.503906 14.0625 -0.359375 Z M 14.0625 -0.359375 "/></g></g></g><g fill="#9abc43" fill-opacity="1"><g transform="translate(145.582021, 260.314124)"><g><path d="M 5.953125 -1.578125 C 3.804688 -1.785156 2.265625 -2.515625 1.328125 -3.765625 C 0.398438 -5.023438 -0.148438 -6.570312 -0.328125 -8.40625 C -0.503906 -10.238281 -0.503906 -12.101562 -0.328125 -14 C -0.160156 -15.894531 -0.0351562 -17.601562 0.046875 -19.125 C 0.285156 -23.175781 0.628906 -27.226562 1.078125 -31.28125 C 1.523438 -35.332031 2.023438 -39.378906 2.578125 -43.421875 C 3.023438 -46.859375 4.0625 -49.765625 5.6875 -52.140625 C 7.3125 -54.515625 9.941406 -56.085938 13.578125 -56.859375 C 15.609375 -57.296875 17.367188 -57.125 18.859375 -56.34375 C 20.359375 -55.5625 21.660156 -54.414062 22.765625 -52.90625 C 23.878906 -51.40625 24.890625 -49.789062 25.796875 -48.0625 C 26.710938 -46.34375 27.578125 -44.75 28.390625 -43.28125 L 42.296875 -19.15625 C 43.234375 -17.550781 43.800781 -16.0625 44 -14.6875 C 44.195312 -13.320312 43.648438 -11.867188 42.359375 -10.328125 C 41.066406 -8.859375 39.703125 -8.046875 38.265625 -7.890625 C 36.828125 -7.734375 35.414062 -8.363281 34.03125 -9.78125 C 33.363281 -10.476562 32.75 -11.394531 32.1875 -12.53125 C 31.632812 -13.675781 31.050781 -14.785156 30.4375 -15.859375 C 29.832031 -16.941406 29.113281 -17.703125 28.28125 -18.140625 C 28.164062 -18.222656 27.507812 -18.207031 26.3125 -18.09375 C 25.113281 -17.988281 23.734375 -17.832031 22.171875 -17.625 C 20.617188 -17.425781 19.203125 -17.195312 17.921875 -16.9375 C 16.648438 -16.675781 15.878906 -16.382812 15.609375 -16.0625 C 14.992188 -15.289062 14.664062 -14.203125 14.625 -12.796875 C 14.59375 -11.390625 14.59375 -9.941406 14.625 -8.453125 C 14.65625 -6.972656 14.40625 -5.757812 13.875 -4.8125 C 13.132812 -3.488281 12 -2.578125 10.46875 -2.078125 C 8.945312 -1.585938 7.441406 -1.421875 5.953125 -1.578125 Z M 17.1875 -27.875 C 17.894531 -28.09375 18.585938 -28.347656 19.265625 -28.640625 C 19.953125 -28.929688 20.628906 -29.191406 21.296875 -29.421875 C 20.722656 -30.398438 20.171875 -31.378906 19.640625 -32.359375 C 19.117188 -33.347656 18.601562 -34.332031 18.09375 -35.3125 C 17.925781 -34.101562 17.769531 -32.875 17.625 -31.625 C 17.476562 -30.382812 17.332031 -29.132812 17.1875 -27.875 Z M 17.1875 -27.875 "/></g></g></g><g fill="#17542a" fill-opacity="1"><g transform="translate(164.285019, 204.736959)"><g><path d="M 18.5625 -5.25 C 14.582031 -5.632812 10.90625 -6.84375 7.53125 -8.875 C 4.15625 -10.90625 1.382812 -13.59375 -0.78125 -16.9375 C -3.019531 -20.445312 -4.363281 -24.128906 -4.8125 -27.984375 C -5.269531 -31.847656 -4.957031 -35.65625 -3.875 -39.40625 C -2.789062 -43.15625 -1.070312 -46.617188 1.28125 -49.796875 C 3.644531 -52.984375 6.539062 -55.59375 9.96875 -57.625 C 11.351562 -58.457031 12.914062 -59.253906 14.65625 -60.015625 C 16.394531 -60.773438 18.132812 -61.273438 19.875 -61.515625 C 21.613281 -61.765625 23.160156 -61.515625 24.515625 -60.765625 C 25.878906 -60.015625 26.863281 -58.523438 27.46875 -56.296875 C 28.0625 -54.171875 27.988281 -52.285156 27.25 -50.640625 C 26.507812 -48.992188 25.394531 -47.546875 23.90625 -46.296875 C 22.414062 -45.046875 20.796875 -43.921875 19.046875 -42.921875 C 17.304688 -41.929688 15.691406 -41.007812 14.203125 -40.15625 C 13.148438 -38.582031 12.296875 -36.882812 11.640625 -35.0625 C 10.984375 -33.238281 10.675781 -31.492188 10.71875 -29.828125 C 10.769531 -28.160156 11.320312 -26.71875 12.375 -25.5 C 13.425781 -24.28125 15.128906 -23.445312 17.484375 -23 C 18.921875 -22.738281 20.398438 -22.65625 21.921875 -22.75 C 23.441406 -22.851562 24.898438 -22.945312 26.296875 -23.03125 C 27.691406 -23.113281 28.984375 -23.007812 30.171875 -22.71875 C 31.359375 -22.425781 32.335938 -21.800781 33.109375 -20.84375 C 33.878906 -19.882812 34.378906 -18.359375 34.609375 -16.265625 C 34.878906 -14.003906 34.546875 -12.117188 33.609375 -10.609375 C 32.671875 -9.109375 31.378906 -7.941406 29.734375 -7.109375 C 28.085938 -6.273438 26.285156 -5.710938 24.328125 -5.421875 C 22.378906 -5.140625 20.457031 -5.082031 18.5625 -5.25 Z M 18.5625 -5.25 "/></g></g></g><g fill="#17542a" fill-opacity="1"><g transform="translate(199.609038, 201.282622)"><g><path d="M 4.453125 -56.28125 C 4.054688 -58.09375 4.234375 -59.875 4.984375 -61.625 C 5.734375 -63.382812 6.835938 -64.925781 8.296875 -66.25 C 9.765625 -67.570312 11.378906 -68.429688 13.140625 -68.828125 C 13.859375 -68.960938 14.78125 -68.957031 15.90625 -68.8125 C 17.039062 -68.675781 18.160156 -68.351562 19.265625 -67.84375 C 20.378906 -67.34375 21.226562 -66.6875 21.8125 -65.875 C 22.394531 -65.070312 22.476562 -64.113281 22.0625 -63 C 22.570312 -61.1875 22.394531 -59.390625 21.53125 -57.609375 C 20.664062 -55.828125 19.425781 -54.304688 17.8125 -53.046875 C 16.195312 -51.796875 14.460938 -50.972656 12.609375 -50.578125 C 10.765625 -50.191406 9.09375 -50.425781 7.59375 -51.28125 C 6.09375 -52.132812 5.046875 -53.800781 4.453125 -56.28125 Z M 13.375 -0.578125 C 11.332031 0.691406 9.410156 0.863281 7.609375 -0.0625 C 5.804688 -0.988281 4.484375 -2.460938 3.640625 -4.484375 C 2.835938 -6.421875 2.363281 -8.632812 2.21875 -11.125 C 2.070312 -13.613281 2.109375 -16.191406 2.328125 -18.859375 C 2.554688 -21.535156 2.851562 -24.144531 3.21875 -26.6875 C 3.59375 -29.238281 3.914062 -31.492188 4.1875 -33.453125 C 4.375 -34.691406 4.566406 -36.128906 4.765625 -37.765625 C 4.972656 -39.398438 5.328125 -41.007812 5.828125 -42.59375 C 6.328125 -44.175781 7.046875 -45.425781 7.984375 -46.34375 C 9.359375 -47.644531 10.753906 -48.210938 12.171875 -48.046875 C 13.597656 -47.890625 14.925781 -47.285156 16.15625 -46.234375 C 17.394531 -45.191406 18.300781 -43.90625 18.875 -42.375 C 20.195312 -39.09375 20.863281 -35.46875 20.875 -31.5 C 20.894531 -27.53125 20.535156 -23.5625 19.796875 -19.59375 C 19.066406 -15.632812 18.289062 -12 17.46875 -8.6875 C 17.09375 -7.21875 16.671875 -5.734375 16.203125 -4.234375 C 15.742188 -2.734375 14.800781 -1.515625 13.375 -0.578125 Z M 13.375 -0.578125 "/></g></g></g><g fill="#9abc43" fill-opacity="1"><g transform="translate(188.497095, 252.803288)"><g><path d="M 10.234375 -57.625 C 9.066406 -57.34375 8.289062 -57.488281 7.90625 -58.0625 C 7.53125 -58.644531 7.390625 -59.390625 7.484375 -60.296875 C 7.578125 -61.203125 7.773438 -62.03125 8.078125 -62.78125 C 8.753906 -64.382812 9.535156 -65.910156 10.421875 -67.359375 C 11.304688 -68.804688 12.648438 -69.617188 14.453125 -69.796875 C 15.773438 -69.921875 16.640625 -69.5625 17.046875 -68.71875 C 17.460938 -67.875 17.582031 -66.890625 17.40625 -65.765625 C 17.238281 -64.648438 16.921875 -63.742188 16.453125 -63.046875 C 15.785156 -62.023438 14.882812 -60.9375 13.75 -59.78125 C 12.613281 -58.625 11.441406 -57.90625 10.234375 -57.625 Z M 11.859375 -1.265625 C 10.128906 -0.0234375 8.4375 0.234375 6.78125 -0.484375 C 5.125 -1.210938 3.851562 -2.445312 2.96875 -4.1875 C 2.144531 -5.882812 1.597656 -7.832031 1.328125 -10.03125 C 1.066406 -12.226562 0.957031 -14.519531 1 -16.90625 C 1.050781 -19.300781 1.171875 -21.644531 1.359375 -23.9375 C 1.546875 -26.226562 1.703125 -28.25 1.828125 -30 C 1.878906 -30.644531 1.921875 -31.695312 1.953125 -33.15625 C 1.984375 -34.613281 2.039062 -36.257812 2.125 -38.09375 C 2.207031 -39.925781 2.328125 -41.734375 2.484375 -43.515625 C 2.640625 -45.304688 2.867188 -46.894531 3.171875 -48.28125 C 3.484375 -49.664062 3.867188 -50.625 4.328125 -51.15625 C 5.492188 -52.40625 6.710938 -52.992188 7.984375 -52.921875 C 9.265625 -52.859375 10.476562 -52.394531 11.625 -51.53125 C 12.78125 -50.675781 13.660156 -49.59375 14.265625 -48.28125 C 15.085938 -46.582031 15.703125 -44.421875 16.109375 -41.796875 C 16.515625 -39.171875 16.75 -36.328125 16.8125 -33.265625 C 16.882812 -30.210938 16.832031 -27.144531 16.65625 -24.0625 C 16.488281 -20.976562 16.257812 -18.101562 15.96875 -15.4375 C 15.6875 -12.769531 15.375 -10.535156 15.03125 -8.734375 C 14.78125 -7.398438 14.492188 -6.050781 14.171875 -4.6875 C 13.847656 -3.332031 13.078125 -2.191406 11.859375 -1.265625 Z M 11.859375 -1.265625 "/></g></g></g><g fill="#17542a" fill-opacity="1"><g transform="translate(227.072149, 212.91009)"><g><path d="M 23.109375 -6.125 C 18.203125 -6.695312 13.675781 -8.273438 9.53125 -10.859375 C 5.382812 -13.453125 1.988281 -16.835938 -0.65625 -21.015625 C -3.332031 -25.410156 -4.910156 -30.007812 -5.390625 -34.8125 C -5.878906 -39.613281 -5.414062 -44.320312 -4 -48.9375 C -2.582031 -53.5625 -0.378906 -57.828125 2.609375 -61.734375 C 5.597656 -65.648438 9.242188 -68.835938 13.546875 -71.296875 C 15.265625 -72.273438 17.210938 -73.222656 19.390625 -74.140625 C 21.566406 -75.054688 23.738281 -75.644531 25.90625 -75.90625 C 28.082031 -76.164062 30 -75.820312 31.65625 -74.875 C 33.3125 -73.925781 34.5 -72.0625 35.21875 -69.28125 C 35.90625 -66.625 35.773438 -64.285156 34.828125 -62.265625 C 33.878906 -60.253906 32.46875 -58.484375 30.59375 -56.953125 C 28.71875 -55.421875 26.6875 -54.050781 24.5 -52.84375 C 22.320312 -51.644531 20.300781 -50.535156 18.4375 -49.515625 C 17.101562 -47.597656 16.003906 -45.515625 15.140625 -43.265625 C 14.273438 -41.015625 13.859375 -38.851562 13.890625 -36.78125 C 13.921875 -34.707031 14.578125 -32.90625 15.859375 -31.375 C 17.140625 -29.851562 19.238281 -28.78125 22.15625 -28.15625 C 23.9375 -27.800781 25.765625 -27.671875 27.640625 -27.765625 C 29.523438 -27.867188 31.335938 -27.953125 33.078125 -28.015625 C 34.816406 -28.085938 36.425781 -27.9375 37.90625 -27.5625 C 39.382812 -27.1875 40.582031 -26.394531 41.5 -25.1875 C 42.414062 -23.976562 43.003906 -22.078125 43.265625 -19.484375 C 43.546875 -16.679688 43.085938 -14.347656 41.890625 -12.484375 C 40.691406 -10.628906 39.066406 -9.207031 37.015625 -8.21875 C 34.972656 -7.226562 32.734375 -6.570312 30.296875 -6.25 C 27.859375 -5.9375 25.460938 -5.894531 23.109375 -6.125 Z M 23.109375 -6.125 "/></g></g></g><g fill="#17542a" fill-opacity="1"><g transform="translate(264.330638, 199.553543)"><g><path d="M 32.84375 0.34375 C 31.207031 1.113281 29.316406 1.46875 27.171875 1.40625 C 25.035156 1.351562 22.875 1.085938 20.6875 0.609375 C 18.5 0.128906 16.570312 -0.296875 14.90625 -0.671875 C 11.257812 -1.484375 8.3125 -2.847656 6.0625 -4.765625 C 3.820312 -6.691406 2.601562 -9.617188 2.40625 -13.546875 C 2.25 -17.054688 2.296875 -20.671875 2.546875 -24.390625 C 2.796875 -28.117188 3.035156 -31.734375 3.265625 -35.234375 C 3.367188 -37.210938 3.507812 -39.398438 3.6875 -41.796875 C 3.875 -44.191406 4.296875 -46.5 4.953125 -48.71875 C 5.609375 -50.945312 6.65625 -52.851562 8.09375 -54.4375 C 9.65625 -56.101562 11.300781 -56.976562 13.03125 -57.0625 C 14.757812 -57.144531 16.316406 -56.625 17.703125 -55.5 C 19.085938 -54.382812 20.035156 -52.796875 20.546875 -50.734375 C 21.273438 -48.253906 21.617188 -45.613281 21.578125 -42.8125 C 21.546875 -40.019531 21.375 -37.226562 21.0625 -34.4375 C 20.75 -31.65625 20.46875 -29 20.21875 -26.46875 C 20.113281 -25.570312 19.960938 -24.601562 19.765625 -23.5625 C 19.566406 -22.519531 19.5 -21.515625 19.5625 -20.546875 C 19.675781 -19.347656 19.753906 -18.601562 19.796875 -18.3125 C 19.835938 -18.03125 20.046875 -17.925781 20.421875 -18 C 20.796875 -18.070312 21.476562 -17.96875 22.46875 -17.6875 C 23.875 -17.375 25.238281 -17.15625 26.5625 -17.03125 C 27.894531 -16.90625 29.1875 -16.710938 30.4375 -16.453125 C 31.695312 -16.191406 32.929688 -15.609375 34.140625 -14.703125 C 35.828125 -13.484375 36.882812 -11.851562 37.3125 -9.8125 C 37.75 -7.78125 37.59375 -5.8125 36.84375 -3.90625 C 36.09375 -2 34.757812 -0.582031 32.84375 0.34375 Z M 32.84375 0.34375 "/></g></g></g><g fill="#17542a" fill-opacity="1"><g transform="translate(283.343049, 194.256731)"><g><path d="M 6.375 1.421875 C 4.457031 0.191406 3.367188 -1.242188 3.109375 -2.890625 C 2.847656 -4.535156 3.085938 -6.265625 3.828125 -8.078125 C 4.566406 -9.890625 5.476562 -11.648438 6.5625 -13.359375 C 7.65625 -15.066406 8.617188 -16.613281 9.453125 -18 C 11.660156 -21.695312 13.96875 -25.34375 16.375 -28.9375 C 18.78125 -32.53125 21.242188 -36.097656 23.765625 -39.640625 C 25.867188 -42.648438 28.269531 -44.878906 30.96875 -46.328125 C 33.664062 -47.785156 36.921875 -47.976562 40.734375 -46.90625 C 42.835938 -46.3125 44.398438 -45.28125 45.421875 -43.8125 C 46.453125 -42.34375 47.125 -40.628906 47.4375 -38.671875 C 47.75 -36.722656 47.90625 -34.710938 47.90625 -32.640625 C 47.914062 -30.566406 47.945312 -28.640625 48 -26.859375 L 49.25 2.703125 C 49.351562 4.679688 49.160156 6.363281 48.671875 7.75 C 48.179688 9.132812 46.953125 10.238281 44.984375 11.0625 C 43.035156 11.8125 41.347656 11.90625 39.921875 11.34375 C 38.503906 10.789062 37.484375 9.503906 36.859375 7.484375 C 36.578125 6.503906 36.453125 5.335938 36.484375 3.984375 C 36.515625 2.640625 36.507812 1.3125 36.46875 0 C 36.4375 -1.3125 36.132812 -2.378906 35.5625 -3.203125 C 35.476562 -3.347656 34.84375 -3.660156 33.65625 -4.140625 C 32.476562 -4.628906 31.109375 -5.15625 29.546875 -5.71875 C 27.992188 -6.289062 26.550781 -6.765625 25.21875 -7.140625 C 23.882812 -7.523438 23.015625 -7.640625 22.609375 -7.484375 C 21.660156 -7.066406 20.816406 -6.203125 20.078125 -4.890625 C 19.347656 -3.578125 18.628906 -2.210938 17.921875 -0.796875 C 17.222656 0.609375 16.394531 1.632812 15.4375 2.28125 C 14.09375 3.15625 12.578125 3.453125 10.890625 3.171875 C 9.210938 2.898438 7.707031 2.316406 6.375 1.421875 Z M 29.875 -17.796875 C 30.664062 -17.679688 31.445312 -17.59375 32.21875 -17.53125 C 33 -17.476562 33.765625 -17.394531 34.515625 -17.28125 C 34.460938 -18.46875 34.425781 -19.65625 34.40625 -20.84375 C 34.382812 -22.039062 34.378906 -23.222656 34.390625 -24.390625 C 33.648438 -23.328125 32.898438 -22.242188 32.140625 -21.140625 C 31.390625 -20.046875 30.632812 -18.929688 29.875 -17.796875 Z M 29.875 -17.796875 "/></g></g></g></svg>